<?xml version="1.0" encoding="UTF-8" standalone="no"?>
<!-- Created with Inkscape (http://www.inkscape.org/) -->

<svg
   xmlns:dc="http://purl.org/dc/elements/1.1/"
   xmlns:cc="http://creativecommons.org/ns#"
   xmlns:rdf="http://www.w3.org/1999/02/22-rdf-syntax-ns#"
   xmlns:svg="http://www.w3.org/2000/svg"
   xmlns="http://www.w3.org/2000/svg"
   xmlns:sodipodi="http://sodipodi.sourceforge.net/DTD/sodipodi-0.dtd"
   xmlns:inkscape="http://www.inkscape.org/namespaces/inkscape"
   width="354.33069"
   height="354.33069"
   id="svg2"
   version="1.1"
   inkscape:version="0.48.4 r9939"
   sodipodi:docname="DiscosenCajaCuadrada01.svg">
  <sodipodi:namedview
     id="base"
     pagecolor="#ffffff"
     bordercolor="#666666"
     borderopacity="1.0"
     inkscape:pageopacity="0.0"
     inkscape:pageshadow="2"
     inkscape:zoom="2.765919"
     inkscape:cx="60.114586"
     inkscape:cy="194.91146"
     inkscape:document-units="px"
     inkscape:current-layer="layer1"
     showgrid="false"
     units="cm"
     showguides="true"
     inkscape:guide-bbox="true"
     inkscape:window-width="1579"
     inkscape:window-height="875"
     inkscape:window-x="0"
     inkscape:window-y="0"
     inkscape:window-maximized="1">
    <sodipodi:guide
       id="guide2985"
       position="185.09049,181.00009"
       orientation="1,0" />
    <sodipodi:guide
       id="guide2987"
       position="208.09898,183.04529"
       orientation="0,1" />
    <sodipodi:guide
       orientation="0,1"
       position="24.031086,40.903976"
       id="guide4616" />
    <sodipodi:guide
       orientation="1,0"
       position="24.031086,66.98026"
       id="guide4618" />
  </sodipodi:namedview>
  <defs
     id="defs4">
    <marker
       inkscape:stockid="DotM"
       orient="auto"
       refY="0.0"
       refX="0.0"
       id="DotM"
       style="overflow:visible">
      <path
         id="path4028"
         d="M -2.5,-1.0 C -2.5,1.7600000 -4.7400000,4.0 -7.5,4.0 C -10.260000,4.0 -12.5,1.7600000 -12.5,-1.0 C -12.5,-3.7600000 -10.260000,-6.0 -7.5,-6.0 C -4.7400000,-6.0 -2.5,-3.7600000 -2.5,-1.0 z "
         style="fill-rule:evenodd;stroke:#000000;stroke-width:1.0pt"
         transform="scale(0.4) translate(7.4, 1)" />
    </marker>
    <marker
       inkscape:stockid="Arrow1Mend"
       orient="auto"
       refY="0.0"
       refX="0.0"
       id="Arrow1Mend"
       style="overflow:visible;">
      <path
         id="path3973"
         d="M 0.0,0.0 L 5.0,-5.0 L -12.5,0.0 L 5.0,5.0 L 0.0,0.0 z "
         style="fill-rule:evenodd;stroke:#000000;stroke-width:1.0pt;"
         transform="scale(0.4) rotate(180) translate(10,0)" />
    </marker>
  </defs>
  <metadata
     id="metadata7">
    <rdf:RDF>
      <cc:Work
         rdf:about="">
        <dc:format>image/svg+xml</dc:format>
        <dc:type
           rdf:resource="http://purl.org/dc/dcmitype/StillImage" />
        <dc:title />
      </cc:Work>
    </rdf:RDF>
  </metadata>
  <g
     transform="translate(0,-698.03017)"
     id="layer1"
     inkscape:groupmode="layer"
     inkscape:label="Layer 1">
    <rect
       transform="translate(0,698.03017)"
       y="55.731667"
       x="38.858776"
       height="231.10747"
       width="292.46344"
       id="rect2989"
       style="fill:none;stroke:#800e0e;stroke-width:1.60000002;stroke-miterlimit:4;stroke-opacity:1;stroke-dasharray:none" />
    <path
       id="path2999"
       style="stroke-linejoin:miter;stroke-opacity:1.0;fill-opacity:1.0;stroke:#000000;stroke-linecap:butt;stroke-width:1.0px;fill:none"
       d="M177.16534,177.16535L190.413321606,155.964147596L203.661303212,134.762945192L203.661303212,109.762945192L210.552237107,85.7314027937L223.800218713,64.5302003898M203.661303212,134.762945192L222.239923849,118.034680033L235.487905454,96.8334776293L242.37883935,72.8019352308M203.661303212,134.762945192L216.909284817,113.561742788L230.157266423,92.3605403844L230.157266423,67.3605403844L237.048200319,43.3289979859L250.296181925,22.127795582M230.157266423,92.3605403844L248.73588706,75.6322752254L261.983868666,54.4310728215L268.874802562,30.399530423M230.157266423,92.3605403844L230.157266423,67.3605403844L230.157266423,42.3605403844L216.909284817,21.1593379804L210.018350922,-2.87220441801L210.018350922,-27.872204418M230.157266423,42.3605403844L237.048200319,18.3289979859L237.048200319,-6.6710020141L230.157266423,-30.7025444126M230.157266423,42.3605403844L237.048200319,18.3289979859L243.939134214,-5.70254441256L237.048200319,-29.734086811L237.048200319,-54.734086811L243.939134214,-78.7656292095M243.939134214,-5.70254441256L257.18711582,-26.9037468165L264.078049715,-50.9352892149L264.078049715,-75.9352892149M243.939134214,-5.70254441256L257.18711582,-26.9037468165L270.435097426,-48.1049492204L270.435097426,-73.1049492204L277.326031321,-97.1364916188L290.574012927,-118.337694023M270.435097426,-48.1049492204L289.013718063,-64.8332143794L302.261699669,-86.0344167833L309.152633564,-110.065959182M230.157266423,92.3605403844L248.73588706,75.6322752254L267.314507697,58.9040100664L274.205441593,34.872467668L287.453423198,13.671265264L306.032043835,-3.05699989493M267.314507697,58.9040100664L289.784358855,47.9447313967L308.362979492,31.2164662377L321.610961097,10.0152638338M267.314507697,58.9040100664L280.562489303,37.7028076625L293.810470909,16.5016052586L293.810470909,-8.49839474141L300.701404804,-32.5299371399L313.94938641,-53.7311395438M293.810470909,16.5016052586L312.389091546,-0.226659900378L325.637073152,-21.4278623043L332.528007047,-45.4594047027M293.810470909,16.5016052586L300.701404804,-7.52993713986L307.5923387,-31.5614795383L300.701404804,-55.5930219368L300.701404804,-80.5930219368L307.5923387,-104.624564335M307.5923387,-31.5614795383L320.840320306,-52.7626819422L327.731254201,-76.7942243407L327.731254201,-101.794224341M230.157266423,92.3605403844L243.405248029,71.1593379804L256.653229635,49.9581355765L256.653229635,24.9581355765L263.54416353,0.926593178078L276.792145136,-20.2746092258M256.653229635,49.9581355765L275.231850272,33.2298704176L288.479831878,12.0286680137L295.370765773,-12.0028743848M256.653229635,49.9581355765L269.901211241,28.7569331726L283.149192847,7.55573076871L283.149192847,-17.4442692313L290.040126742,-41.4758116297L303.288108348,-62.6770140337M283.149192847,7.55573076871L301.727813484,-9.17253439026L314.975795089,-30.3737367942L321.866728985,-54.4052791926M283.149192847,7.55573076871L283.149192847,-17.4442692313L283.149192847,-42.4442692313L269.901211241,-63.6454716352L263.010277345,-87.6770140337L263.010277345,-112.677014034M283.149192847,-42.4442692313L290.040126742,-66.4758116297L290.040126742,-91.4758116297L283.149192847,-115.507354028M283.149192847,-42.4442692313L290.040126742,-66.4758116297L296.931060637,-90.5073540282L290.040126742,-114.538896427L290.040126742,-139.538896427L296.931060637,-163.570438825M296.931060637,-90.5073540282L310.179042243,-111.708556432L317.069976139,-135.740098831L317.069976139,-160.740098831M296.931060637,-90.5073540282L310.179042243,-111.708556432L323.427023849,-132.909758836L323.427023849,-157.909758836L330.317957745,-181.941301234L343.56593935,-203.142503638M323.427023849,-132.909758836L342.005644486,-149.638023995L355.253626092,-170.839226399L362.144559987,-194.870768797M283.149192847,7.55573076871L301.727813484,-9.17253439026L320.306434121,-25.9007995492L327.197368016,-49.9323419477L340.445349622,-71.1335443516L359.023970259,-87.8618095106M320.306434121,-25.9007995492L342.776285278,-36.860078219L361.354905915,-53.5883433779L374.602887521,-74.7895457818M320.306434121,-25.9007995492L333.554415726,-47.1020019531L346.802397332,-68.303204357L346.802397332,-93.303204357L353.693331228,-117.334746756L366.941312833,-138.535949159M346.802397332,-68.303204357L365.381017969,-85.031469516L378.628999575,-106.23267192L385.51993347,-130.264214318M346.802397332,-68.303204357L353.693331228,-92.3347467555L360.584265123,-116.366289154L353.693331228,-140.397831552L353.693331228,-165.397831552L360.584265123,-189.429373951M360.584265123,-116.366289154L373.832246729,-137.567491558L380.723180624,-161.599033956L380.723180624,-186.599033956M283.149192847,7.55573076871L283.149192847,-17.4442692313L283.149192847,-42.4442692313L269.901211241,-63.6454716352L263.010277345,-87.6770140337L263.010277345,-112.677014034M283.149192847,-42.4442692313L290.040126742,-66.4758116297L290.040126742,-91.4758116297L283.149192847,-115.507354028M283.149192847,-42.4442692313L283.149192847,-67.4442692313L283.149192847,-92.4442692313L269.901211241,-113.645471635L263.010277345,-137.677014034L263.010277345,-162.677014034M283.149192847,-92.4442692313L290.040126742,-116.47581163L290.040126742,-141.47581163L283.149192847,-165.507354028M283.149192847,-92.4442692313L269.901211241,-113.645471635L256.653229635,-134.846674039L234.183378478,-145.805952709L215.604757841,-162.534217868L202.356776235,-183.735420272M256.653229635,-134.846674039L249.76229574,-158.878216438L236.514314134,-180.079418841L217.935693497,-196.807684M256.653229635,-134.846674039L249.76229574,-158.878216438L242.871361844,-182.909758836L224.292741207,-199.638023995L211.044759601,-220.839226399L204.153825706,-244.870768797M242.871361844,-182.909758836L242.871361844,-207.909758836L235.980427949,-231.941301234L222.732446343,-253.142503638M242.871361844,-182.909758836L242.871361844,-207.909758836L242.871361844,-232.909758836L229.623380238,-254.11096124L222.732446343,-278.142503638L222.732446343,-303.142503638M242.871361844,-232.909758836L249.76229574,-256.941301234L249.76229574,-281.941301234L242.871361844,-305.972843633M283.149192847,-92.4442692313L290.040126742,-116.47581163L296.931060637,-140.507354028L290.040126742,-164.538896427L290.040126742,-189.538896427L296.931060637,-213.570438825M296.931060637,-140.507354028L310.179042243,-161.708556432L317.069976139,-185.740098831L317.069976139,-210.740098831M296.931060637,-140.507354028L296.931060637,-165.507354028L296.931060637,-190.507354028L283.683079032,-211.708556432L276.792145136,-235.740098831L276.792145136,-260.740098831M296.931060637,-190.507354028L303.821994533,-214.538896427L303.821994533,-239.538896427L296.931060637,-263.570438825M296.931060637,-190.507354028L290.040126742,-214.538896427L283.149192847,-238.570438825L264.57057221,-255.298703984L251.322590604,-276.499906388L244.431656708,-300.531448786M283.149192847,-238.570438825L283.149192847,-263.570438825L276.258258951,-287.601981224L263.010277345,-308.803183627M283.149192847,-92.4442692313L290.040126742,-116.47581163L296.931060637,-140.507354028L290.040126742,-164.538896427L290.040126742,-189.538896427L296.931060637,-213.570438825M296.931060637,-140.507354028L310.179042243,-161.708556432L317.069976139,-185.740098831L317.069976139,-210.740098831M296.931060637,-140.507354028L303.821994533,-164.538896427L310.712928428,-188.570438825L303.821994533,-212.601981224L303.821994533,-237.601981224L310.712928428,-261.633523622M310.712928428,-188.570438825L323.960910034,-209.771641229L330.85184393,-233.803183627L330.85184393,-258.803183627M310.712928428,-188.570438825L303.821994533,-212.601981224L296.931060637,-236.633523622L278.352440001,-253.361788781L265.104458395,-274.562991185L258.213524499,-298.594533583M296.931060637,-236.633523622L296.931060637,-261.633523622L290.040126742,-285.66506602L276.792145136,-306.866268424M296.931060637,-236.633523622L296.931060637,-261.633523622L296.931060637,-286.633523622L283.683079032,-307.834726026L276.792145136,-331.866268424L276.792145136,-356.866268424M296.931060637,-286.633523622L303.821994533,-310.66506602L303.821994533,-335.66506602L296.931060637,-359.696608419M296.931060637,-286.633523622L303.821994533,-310.66506602L310.712928428,-334.696608419L303.821994533,-358.728150817L303.821994533,-383.728150817L310.712928428,-407.759693216M310.712928428,-334.696608419L323.960910034,-355.897810823L330.85184393,-379.929353221L330.85184393,-404.929353221M310.712928428,-188.570438825L323.960910034,-209.771641229L337.20889164,-230.972843633L337.20889164,-255.972843633L344.099825535,-280.004386031L357.347807141,-301.205588435M337.20889164,-230.972843633L355.787512277,-247.701108792L369.035493883,-268.902311196L375.926427778,-292.933853594M337.20889164,-230.972843633L344.099825535,-255.004386031L350.990759431,-279.03592843L344.099825535,-303.067470828L344.099825535,-328.067470828L350.990759431,-352.099013227M350.990759431,-279.03592843L364.238741037,-300.237130834L371.129674932,-324.268673232L371.129674932,-349.268673232M350.990759431,-279.03592843L350.990759431,-304.03592843L350.990759431,-329.03592843L337.742777825,-350.237130834L330.85184393,-374.268673232L330.85184393,-399.268673232M350.990759431,-329.03592843L357.881693326,-353.067470828L357.881693326,-378.067470828L350.990759431,-402.099013227M310.712928428,-188.570438825L323.960910034,-209.771641229L337.20889164,-230.972843633L337.20889164,-255.972843633L344.099825535,-280.004386031L357.347807141,-301.205588435M337.20889164,-230.972843633L355.787512277,-247.701108792L369.035493883,-268.902311196L375.926427778,-292.933853594M337.20889164,-230.972843633L350.456873246,-252.174046037L363.704854852,-273.375248441L363.704854852,-298.375248441L370.595788747,-322.406790839L383.843770353,-343.607993243M363.704854852,-273.375248441L382.283475489,-290.1035136L395.531457094,-311.304716004L402.42239099,-335.336258402M363.704854852,-273.375248441L363.704854852,-298.375248441L363.704854852,-323.375248441L350.456873246,-344.576450845L343.56593935,-368.607993243L343.56593935,-393.607993243M363.704854852,-323.375248441L370.595788747,-347.406790839L370.595788747,-372.406790839L363.704854852,-396.438333238M363.704854852,-323.375248441L370.595788747,-347.406790839L377.486722643,-371.438333238L370.595788747,-395.469875636L370.595788747,-420.469875636L377.486722643,-444.501418035M377.486722643,-371.438333238L390.734704248,-392.639535642L397.625638144,-416.67107804L397.625638144,-441.67107804M377.486722643,-371.438333238L390.734704248,-392.639535642L403.982685854,-413.840738045L403.982685854,-438.840738045L410.87361975,-462.872280444L424.121601355,-484.073482848M403.982685854,-413.840738045L422.561306491,-430.569003204L435.809288097,-451.770205608L442.700221992,-475.801748007M363.704854852,-273.375248441L382.283475489,-290.1035136L400.862096126,-306.831778759L407.753030021,-330.863321157L421.001011627,-352.064523561L439.579632264,-368.79278872M400.862096126,-306.831778759L423.331947283,-317.791057428L441.91056792,-334.519322587L455.158549526,-355.720524991M400.862096126,-306.831778759L414.110077731,-328.032981163L427.358059337,-349.234183567L427.358059337,-374.234183567L434.248993233,-398.265725965L447.496974838,-419.466928369M427.358059337,-349.234183567L445.936679974,-365.962448725L459.18466158,-387.163651129L466.075595475,-411.195193528M427.358059337,-349.234183567L434.248993233,-373.265725965L441.139927128,-397.297268363L434.248993233,-421.328810762L434.248993233,-446.328810762L441.139927128,-470.36035316M441.139927128,-397.297268363L454.387908734,-418.498470767L461.278842629,-442.530013166L461.278842629,-467.530013166M283.149192847,7.55573076871L301.727813484,-9.17253439026L320.306434121,-25.9007995492L327.197368016,-49.9323419477L340.445349622,-71.1335443516L359.023970259,-87.8618095106M320.306434121,-25.9007995492L342.776285278,-36.860078219L361.354905915,-53.5883433779L374.602887521,-74.7895457818M320.306434121,-25.9007995492L338.885054757,-42.6290647082L357.463675394,-59.3573298672L364.35460929,-83.3888722656L377.602590896,-104.59007467L396.181211533,-121.318339829M357.463675394,-59.3573298672L379.933526552,-70.3166085369L398.512147189,-87.0448736959L411.760128795,-108.2460761M357.463675394,-59.3573298672L364.35460929,-83.3888722656L371.245543185,-107.420414664L364.35460929,-131.451957063L364.35460929,-156.451957063L371.245543185,-180.483499461M371.245543185,-107.420414664L384.493524791,-128.621617068L391.384458686,-152.653159466L391.384458686,-177.653159466M371.245543185,-107.420414664L384.493524791,-128.621617068L397.741506397,-149.822819472L397.741506397,-174.822819472L404.632440292,-198.85436187L417.880421898,-220.055564274M397.741506397,-149.822819472L416.320127034,-166.551084631L429.56810864,-187.752287035L436.459042535,-211.783829433M397.741506397,-149.822819472L416.320127034,-166.551084631L434.898747671,-183.27934979L441.789681566,-207.310892188L455.037663172,-228.512094592L473.616283809,-245.240359751M434.898747671,-183.27934979L457.368598828,-194.23862846L475.947219465,-210.966893619L489.195201071,-232.168096022M357.463675394,-59.3573298672L379.933526552,-70.3166085369L402.403377709,-81.2758872066L415.651359315,-102.477089611L434.229979952,-119.20535477L456.69983111,-130.164633439M402.403377709,-81.2758872066L427.023571535,-85.6170916483L449.493422692,-96.576370318L468.072043329,-113.304635477M402.403377709,-81.2758872066L420.981998346,-98.0041523656L439.560618983,-114.732417525L446.451552879,-138.763959923L459.699534484,-159.965162327L478.278155121,-176.693427486M439.560618983,-114.732417525L462.030470141,-125.691696194L480.609090778,-142.419961353L493.857072383,-163.621163757M439.560618983,-114.732417525L452.808600589,-135.933619928L466.056582195,-157.134822332L466.056582195,-182.134822332L472.94751609,-206.166364731L486.195497696,-227.367567135M466.056582195,-157.134822332L484.635202832,-173.863087491L497.883184438,-195.064289895L504.774118333,-219.095832294M357.463675394,-59.3573298672L370.711657,-80.5585322711L383.959638606,-101.759734675L383.959638606,-126.759734675L390.850572501,-150.791277073L404.098554107,-171.992479477M383.959638606,-101.759734675L402.538259243,-118.487999834L415.786240849,-139.689202238L422.677174744,-163.720744636M383.959638606,-101.759734675L397.207620212,-122.960937079L410.455601818,-144.162139483L410.455601818,-169.162139483L417.346535713,-193.193681881L430.594517319,-214.394884285M410.455601818,-144.162139483L429.034222455,-160.890404642L442.28220406,-182.091607046L449.173137956,-206.123149444M410.455601818,-144.162139483L410.455601818,-169.162139483L410.455601818,-194.162139483L397.207620212,-215.363341887L390.316686316,-239.394884285L390.316686316,-264.394884285M410.455601818,-194.162139483L417.346535713,-218.193681881L417.346535713,-243.193681881L410.455601818,-267.22522428M410.455601818,-194.162139483L417.346535713,-218.193681881L424.237469609,-242.22522428L417.346535713,-266.256766678L417.346535713,-291.256766678L424.237469609,-315.288309077M424.237469609,-242.22522428L437.485451214,-263.426426684L444.37638511,-287.457969082L444.37638511,-312.457969082M424.237469609,-242.22522428L437.485451214,-263.426426684L450.73343282,-284.627629088L450.73343282,-309.627629088L457.624366716,-333.659171486L470.872348321,-354.86037389M450.73343282,-284.627629088L469.312053457,-301.355894247L482.560035063,-322.55709665L489.450968958,-346.588639049M410.455601818,-144.162139483L429.034222455,-160.890404642L447.612843092,-177.618669801L454.503776987,-201.650212199L467.751758593,-222.851414603L486.33037923,-239.579679762M447.612843092,-177.618669801L470.082694249,-188.57794847L488.661314886,-205.306213629L501.909296492,-226.507416033M447.612843092,-177.618669801L460.860824697,-198.819872205L474.108806303,-220.021074609L474.108806303,-245.021074609L480.999740199,-269.052617007L494.247721804,-290.253819411M474.108806303,-220.021074609L492.68742694,-236.749339768L505.935408546,-257.950542171L512.826342441,-281.98208457M474.108806303,-220.021074609L480.999740199,-244.052617007L487.890674094,-268.084159405L480.999740199,-292.115701804L480.999740199,-317.115701804L487.890674094,-341.147244202M487.890674094,-268.084159405L501.1386557,-289.285361809L508.029589595,-313.316904208L508.029589595,-338.316904208M410.455601818,-144.162139483L417.346535713,-168.193681881L424.237469609,-192.22522428L417.346535713,-216.256766678L417.346535713,-241.256766678L424.237469609,-265.288309077M424.237469609,-192.22522428L437.485451214,-213.426426684L444.37638511,-237.457969082L444.37638511,-262.457969082M424.237469609,-192.22522428L431.128403504,-216.256766678L438.019337399,-240.288309077L431.128403504,-264.319851475L431.128403504,-289.319851475L438.019337399,-313.351393874M438.019337399,-240.288309077L451.267319005,-261.489511481L458.158252901,-285.521053879L458.158252901,-310.521053879M438.019337399,-240.288309077L431.128403504,-264.319851475L424.237469609,-288.351393874L405.658848972,-305.079659033L392.410867366,-326.280861436L385.51993347,-350.312403835M424.237469609,-288.351393874L424.237469609,-313.351393874L417.346535713,-337.382936272L404.098554107,-358.584138676M424.237469609,-288.351393874L424.237469609,-313.351393874L424.237469609,-338.351393874L410.989488003,-359.552596277L404.098554107,-383.584138676L404.098554107,-408.584138676M424.237469609,-338.351393874L431.128403504,-362.382936272L431.128403504,-387.382936272L424.237469609,-411.41447867M424.237469609,-338.351393874L431.128403504,-362.382936272L438.019337399,-386.41447867L431.128403504,-410.446021069L431.128403504,-435.446021069L438.019337399,-459.477563467M438.019337399,-386.41447867L451.267319005,-407.615681074L458.158252901,-431.647223473L458.158252901,-456.647223473M438.019337399,-240.288309077L451.267319005,-261.489511481L464.515300611,-282.690713884L464.515300611,-307.690713884L471.406234506,-331.722256283L484.654216112,-352.923458687M464.515300611,-282.690713884L483.093921248,-299.418979043L496.341902854,-320.620181447L503.232836749,-344.651723846M464.515300611,-282.690713884L471.406234506,-306.722256283L478.297168402,-330.753798681L471.406234506,-354.78534108L471.406234506,-379.78534108L478.297168402,-403.816883478M478.297168402,-330.753798681L491.545150008,-351.955001085L498.436083903,-375.986543484L498.436083903,-400.986543484M478.297168402,-330.753798681L478.297168402,-355.753798681L478.297168402,-380.753798681L465.049186796,-401.955001085L458.158252901,-425.986543484L458.158252901,-450.986543484M478.297168402,-380.753798681L485.188102297,-404.78534108L485.188102297,-429.78534108L478.297168402,-453.816883478" />
    <path
       style="fill:none;stroke:#000000;stroke-width:1;stroke-linecap:butt;stroke-linejoin:miter;stroke-miterlimit:4;stroke-opacity:1;stroke-dasharray:2, 2;stroke-dashoffset:0;marker-start:none;marker-end:url(#Arrow1Mend)"
       d="m 185.09049,315.47191 0,-285.816524"
       id="path3008"
       inkscape:connector-curvature="0"
       transform="translate(0,698.03017)"
       sodipodi:nodetypes="cc" />
    <path
       style="fill:none;stroke:#000000;stroke-width:1;stroke-linecap:butt;stroke-linejoin:miter;stroke-miterlimit:4;stroke-opacity:1;stroke-dasharray:2, 2;stroke-dashoffset:0;marker-start:none;marker-end:url(#Arrow1Mend)"
       d="m 11.759893,171.2854 331.322207,0"
       id="path3010"
       inkscape:connector-curvature="0"
       transform="translate(0,698.03017)"
       sodipodi:nodetypes="cc" />
    <path
       sodipodi:type="arc"
       style="fill:none;fill-opacity:1;fill-rule:nonzero;stroke:#000000;stroke-width:1.69999999999999996;stroke-miterlimit:4;stroke-opacity:1;stroke-dasharray:none;stroke-dashoffset:0"
       id="path4406"
       sodipodi:cx="104.81644"
       sodipodi:cy="144.18651"
       sodipodi:rx="48.573471"
       sodipodi:ry="46.528271"
       d="m 153.37063,145.49715 c -0.75566,25.68666 -23.1067,45.92301 -49.92244,45.19917 -26.815745,-0.72385 -47.941613,-22.13379 -47.18595,-47.82045 0.755664,-25.68666 23.106705,-45.923016 49.92245,-45.199169 26.55573,0.716827 47.58377,21.736639 47.20015,47.181679"
       transform="translate(-10.225994,676.55558)"
       sodipodi:start="0.028172395"
       sodipodi:end="6.2976259"
       sodipodi:open="true" />
    <path
       sodipodi:open="true"
       sodipodi:end="6.2976259"
       sodipodi:start="0.028172395"
       transform="translate(157.99161,772.16863)"
       d="m 153.37063,145.49715 c -0.75566,25.68666 -23.1067,45.92301 -49.92244,45.19917 -26.815745,-0.72385 -47.941613,-22.13379 -47.18595,-47.82045 0.755664,-25.68666 23.106705,-45.923016 49.92245,-45.199169 26.55573,0.716827 47.58377,21.736639 47.20015,47.181679"
       sodipodi:ry="46.528271"
       sodipodi:rx="48.573471"
       sodipodi:cy="144.18651"
       sodipodi:cx="104.81644"
       id="path4408"
       style="fill:none;fill-opacity:1;fill-rule:nonzero;stroke:#000000;stroke-width:1.69999999999999996;stroke-miterlimit:4;stroke-opacity:1;stroke-dasharray:none;stroke-dashoffset:0"
       sodipodi:type="arc" />
    <path
       style="fill:none;stroke:#000000;stroke-width:1px;stroke-linecap:butt;stroke-linejoin:miter;stroke-opacity:1;marker-end:url(#Arrow1Mend)"
       d="M 96.124343,122.20063 170.2628,171.2854"
       id="path4412"
       inkscape:connector-curvature="0"
       transform="translate(0,698.03017)" />
    <path
       style="fill:none;stroke:#000000;stroke-width:1px;stroke-linecap:butt;stroke-linejoin:miter;stroke-opacity:1;marker-end:url(#Arrow1Mend)"
       d="m 265.36454,220.37017 -109.41813,6.64689"
       id="path4416"
       inkscape:connector-curvature="0"
       transform="translate(0,698.03017)" />
    <text
       xml:space="preserve"
       style="font-size:40px;font-style:normal;font-variant:normal;font-weight:bold;font-stretch:normal;text-align:start;line-height:125%;letter-spacing:0px;word-spacing:0px;writing-mode:lr-tb;text-anchor:start;fill:#000000;fill-opacity:1;stroke:none;font-family:Times New Roman;-inkscape-font-specification:'Times New Roman, Bold'"
       x="82.31926"
       y="807.44824"
       id="text4600"
       sodipodi:linespacing="125%"><tspan
         sodipodi:role="line"
         id="tspan4602"
         x="82.31926"
         y="807.44824">1</tspan></text>
    <text
       xml:space="preserve"
       style="font-size:40px;font-style:normal;font-variant:normal;font-weight:bold;font-stretch:normal;text-align:start;line-height:125%;letter-spacing:0px;word-spacing:0px;writing-mode:lr-tb;text-anchor:start;fill:#000000;fill-opacity:1;stroke:none;font-family:Times New Roman;-inkscape-font-specification:'Times New Roman, Bold'"
       x="254.11594"
       y="904.59528"
       id="text4604"
       sodipodi:linespacing="125%"><tspan
         sodipodi:role="line"
         id="tspan4606"
         x="254.11594"
         y="904.59528">2</tspan></text>
    <text
       xml:space="preserve"
       style="font-size:24px;font-style:italic;font-variant:normal;font-weight:normal;font-stretch:normal;text-align:start;line-height:125%;letter-spacing:0px;word-spacing:0px;writing-mode:lr;text-anchor:start;fill:#000000;fill-opacity:1;stroke:none;font-family:Times New Roman;-inkscape-font-specification:'Times New Roman, Italic'"
       x="337.96909"
       y="886.18842"
       id="text4608"
       sodipodi:linespacing="125%"><tspan
         sodipodi:role="line"
         id="tspan4610"
         x="337.96909"
         y="886.18842">x</tspan></text>
    <text
       xml:space="preserve"
       style="font-size:24px;font-style:italic;font-variant:normal;font-weight:normal;font-stretch:normal;text-align:start;line-height:125%;letter-spacing:0px;word-spacing:0px;writing-mode:lr;text-anchor:start;fill:#000000;fill-opacity:1;stroke:none;font-family:Times New Roman;-inkscape-font-specification:'Times New Roman, Italic'"
       x="195.31648"
       y="43.971775"
       id="text4612"
       sodipodi:linespacing="125%"
       transform="translate(0,698.03017)"><tspan
         sodipodi:role="line"
         id="tspan4614"
         x="195.31648"
         y="43.971775">y</tspan></text>
    <path
       style="fill:none;stroke:#000000;stroke-width:1.39999998;stroke-linecap:butt;stroke-linejoin:miter;stroke-miterlimit:4;stroke-opacity:1;stroke-dasharray:none;marker-start:url(#DotM);marker-end:url(#DotM)"
       d="m 31.700581,998.16309 300.132929,1.5339"
       id="path4620"
       inkscape:connector-curvature="0"
       sodipodi:nodetypes="cc" />
    <path
       style="fill:none;stroke:#000000;stroke-width:1.7;stroke-linecap:butt;stroke-linejoin:miter;stroke-opacity:1;stroke-miterlimit:4;stroke-dasharray:none;marker-start:url(#DotM);marker-end:url(#DotM)"
       d="m 24.031086,287.35043 0,-232.641363 0,0"
       id="path4992"
       inkscape:connector-curvature="0"
       transform="translate(0,698.03017)" />
    <text
       sodipodi:linespacing="125%"
       id="text5381"
       y="869.31555"
       x="7.6694946"
       style="font-size:24px;font-style:italic;font-variant:normal;font-weight:normal;font-stretch:normal;text-align:start;line-height:125%;letter-spacing:0px;word-spacing:0px;writing-mode:lr;text-anchor:start;fill:#000000;fill-opacity:1;stroke:none;font-family:Times New Roman;-inkscape-font-specification:'Times New Roman, Italic'"
       xml:space="preserve"><tspan
         y="869.31555"
         x="7.6694946"
         id="tspan5383"
         sodipodi:role="line">h</tspan></text>
    <text
       xml:space="preserve"
       style="font-size:24px;font-style:italic;font-variant:normal;font-weight:normal;font-stretch:normal;text-align:start;line-height:125%;letter-spacing:0px;word-spacing:0px;writing-mode:lr;text-anchor:start;fill:#000000;fill-opacity:1;stroke:none;font-family:Times New Roman;-inkscape-font-specification:'Times New Roman, Italic'"
       x="185.09048"
       y="1011.4569"
       id="text5385"
       sodipodi:linespacing="125%"><tspan
         sodipodi:role="line"
         id="tspan5387"
         x="185.09048"
         y="1011.4569">w</tspan></text>
    <path
       inkscape:connector-curvature="0"
       id="path5389"
       d="m 304.73461,938.34104 -38.34747,-21.4746"
       style="fill:none;stroke:#000000;stroke-width:1.70000005;stroke-linecap:butt;stroke-linejoin:miter;stroke-miterlimit:4;stroke-opacity:1;stroke-dasharray:none;marker-start:url(#DotM);marker-end:url(#DotM)"
       sodipodi:nodetypes="cc" />
    <text
       sodipodi:linespacing="125%"
       id="text5391"
       y="944.47662"
       x="269.96625"
       style="font-size:24px;font-style:italic;font-variant:normal;font-weight:normal;font-stretch:normal;text-align:start;line-height:125%;letter-spacing:0px;word-spacing:0px;writing-mode:lr;text-anchor:start;fill:#000000;fill-opacity:1;stroke:none;font-family:Times New Roman;-inkscape-font-specification:'Times New Roman, Italic'"
       xml:space="preserve"><tspan
         y="944.47662"
         x="269.96625"
         id="tspan5393"
         sodipodi:role="line">r</tspan></text>
  </g>
</svg>
